<svg version="1.1" xmlns="http://www.w3.org/2000/svg" xmlns:xlink="http://www.w3.org/1999/xlink" x="0px" y="0px" viewBox="0 0 200 200" enable-background="new 0 0 200 200" xml:space="preserve">
	<g id="background" display="none"><rect display="inline" width="200" height="200"/></g>
	<g id="header_help" class="header-icon">
		<g>
			<path d="M80.2,121.1c0-5.3,0.7-9.9,2.1-13.6c1.4-3.7,3.8-7.2,7.2-10.4c5-4.8,9.6-9,13.7-12.5c4.2-3.6,7.8-6.9,10.8-10
				c3-3.1,5.4-6,7.1-8.8c1.7-2.8,2.5-5.6,2.5-8.7c0-5.9-1.8-10.4-5.5-13.7c-3.6-3.3-8.2-4.9-13.7-4.9c-8.4,0-14.7,2.3-19.1,6.9
				c-4.4,4.6-6.8,10.2-7.3,16.8l-41.1-2.7c2-18.8,8.9-33.2,20.8-43.1C69.8,6.6,85,1.7,103.7,1.7c8.2,0,15.9,1.1,23.1,3.3
				c7.2,2.2,13.5,5.6,19.1,10c5.5,4.4,9.9,10,13.1,16.5c3.2,6.6,4.8,14.1,4.8,22.7c0,5.2-0.5,9.8-1.6,14c-1.1,4.2-2.9,8.3-5.5,12.4
				c-2.6,4.1-6,8.2-10.1,12.4c-4.2,4.2-9.5,8.8-15.9,13.7c-4.1,3.2-6.8,6.3-8.3,9.3c-1.4,3-2.1,6-2.1,9.1v7.7h-40V121.1z M75.7,172.3
				c0-3.4,0.6-6.6,1.9-9.6c1.2-3,3-5.6,5.2-7.9c2.2-2.2,4.8-4,7.9-5.2c3-1.2,6.2-1.9,9.6-1.9c3.4,0,6.6,0.6,9.6,1.9
				c3,1.2,5.6,3,7.9,5.2c2.2,2.2,4,4.8,5.2,7.9c1.2,3,1.9,6.2,1.9,9.6c0,3.4-0.6,6.6-1.9,9.6c-1.2,3-3,5.6-5.2,7.9
				c-2.2,2.2-4.8,4-7.9,5.2c-3,1.2-6.2,1.9-9.6,1.9c-3.4,0-6.6-0.6-9.6-1.9c-3-1.2-5.6-3-7.9-5.2c-2.2-2.2-4-4.8-5.2-7.9
				C76.3,178.8,75.7,175.6,75.7,172.3z"/>
		</g>
	</g>
</svg>