<svg version="1.1" xmlns="http://www.w3.org/2000/svg" xmlns:xlink="http://www.w3.org/1999/xlink" x="0px" y="0px" viewBox="0 0 200 200" enable-background="new 0 0 200 200" xml:space="preserve">
	<g id="background" display="none"><rect display="inline" width="200" height="200"/></g>
	<g id="header_home" class="header-icon">
		<path d="M170,70.2V31.1c0-2.4-2-4.4-4.4-4.4h-25c-2.4,0-4.7,2-4.7,4.4V39c-15.6-14.1-28-25.7-29.5-27c-4.3-3.8-8.4-3.8-12.8,0
			c-4,3.4-90.4,83.2-90.4,83.2c-2,1.6-2,4.4-0.3,5.8l9.8,10.8c1.7,2,4.4,2,6.1,0.6l7.8-7.2v10.2v63.5c0,6,5,10.8,10.8,10.8h38.2h3.5
			h41.6h3.7h38.2c5.8,0,10.8-4.8,10.8-10.8v-63.5V105l7.2,6.7c2,2,5,1.6,6.4,0l9.8-10.8c1.7-1.8,1.4-4.8-0.3-6.3L170,70.2z"/>
	</g>
</svg>