<svg version="1.1" xmlns="http://www.w3.org/2000/svg" xmlns:xlink="http://www.w3.org/1999/xlink" x="0px" y="0px" viewBox="0 0 200 200" enable-background="new 0 0 200 200" xml:space="preserve">
	<g id="background" display="none"><rect display="inline" width="200" height="200"/></g>
	<g id="header_mall" class="header-icon">
		<path d="M31.4,35.6l24.9,98.4h7.5L57.1,155l-0.8-0.1c-11.6,0-21,9.4-21,21c0,11.6,9.4,21,21,21c8.6,0,16-5.2,19.3-12.6H142 c3.1,7.4,10.4,12.6,18.9,12.6c11.3,0,20.5-9.2,20.5-20.5c0-11.3-9.2-20.5-20.5-20.5c-9.7,0-17.7,6.7-19.9,15.8H76.9 c-1-5.1-3.9-9.4-7.9-12.5l8-25.4h101.2l20-87.5L38.4,25.1l-12.8-8.5l0.6-2.8c0-6.8-5.5-12.3-12.2-12.3C7.2,1.5,1.7,7,1.7,13.8 C1.7,20.5,7.2,26,13.9,26l2.4-0.5L31.4,35.6z"/>
	</g>
</svg>