<svg version="1.1" xmlns="http://www.w3.org/2000/svg" xmlns:xlink="http://www.w3.org/1999/xlink" x="0px" y="0px" viewBox="0 0 200 200" enable-background="new 0 0 200 200" xml:space="preserve">
	<g id="background" display="none"><rect display="inline" width="200" height="200"/></g>
	<g id="header_reports" class="header-icon">
		<path d="M73,104.9V44.4c0-4.2,3.5-7.1,7.3-7.1h5.2c4.2,0,7.3,2.9,7.3,7.1v60.5c0,4.1-3,6.9-7.3,6.9h-5.2
			C76.6,111.8,73,108.9,73,104.9L73,104.9z M103.6,64.7c0-4,3.2-6.9,6.9-6.9h5.2c4,0,7.3,2.9,7.3,6.9v40.2c0,4.1-3.2,6.9-7.3,6.9
			h-5.2c-3.7,0-6.9-2.9-6.9-6.9V64.7L103.6,64.7z M134.5,104.9v-53c0-3.4,3-6.9,6.9-6.9h5.2c4.1,0,7.3,3.5,7.3,6.9v53
			c0,4.1-3.2,6.9-7.3,6.9h-5.2C137.6,111.8,134.5,108.9,134.5,104.9L134.5,104.9z M191.3,153.6V26.2v-1.7v-10
			c0-6.9-5.7-12.8-12.5-12.8H20.8c-7.1,0-12.5,5.9-12.5,12.8v10H7.7v129.3c-0.5,0.3-0.8,0.8-0.8,1.6c0,1.2,0.8,1.7,1.7,1.7h23.7h63.2
			v10.5v4.5L57,184.8c-2.2,0.5-3.4,2.9-2.7,5.2c0.5,1.7,2,2.2,3.7,2.2h1.2l36.1-11.5v9.3v3.6c0,1.7,2,3.4,4.1,3.4c2.4,0,4-1.7,4-3.4
			v-3.6v-9.3l36,11.5h1.4c1.7,0,3.4-0.5,4.1-2.2c0.5-2.4-0.7-4.7-3-5.2L103.4,172v-4.5v-10.5h64h23.3c1.2,0,1.7-0.5,1.7-1.7
			C192.4,154.4,192.1,153.7,191.3,153.6L191.3,153.6z M31.1,112.3h131.8v3H31.1V112.3L31.1,112.3z M54.1,77c3.7,0,7.3,2.7,7.3,6.9
			v20.9c0,4.1-3.5,6.9-7.3,6.9h-5.2c-3.7,0-7.3-2.9-7.3-6.9V83.9c0-4.2,3.6-6.9,7.3-6.9H54.1z"/>
	</g>
</svg>